<mxfile host="app.diagrams.net" agent="Mozilla/5.0 (Windows NT 10.0; Win64; x64) AppleWebKit/537.36 (KHTML, like Gecko) Chrome/132.0.0.0 YaBrowser/25.2.0.0 Safari/537.36" version="26.1.0" pages="2">
  <diagram name="Page-1" id="2_5DW5IGwhuXeKyf1wd">
    <mxGraphModel dx="1487" dy="844" grid="1" gridSize="10" guides="1" tooltips="1" connect="1" arrows="1" fold="1" page="1" pageScale="1" pageWidth="827" pageHeight="1169" math="0" shadow="0">
      <root>
        <mxCell id="0" />
        <mxCell id="1" parent="0" />
        <mxCell id="-nLzh2Zqv-7Wwyc-YTre-23" style="edgeStyle=orthogonalEdgeStyle;rounded=0;orthogonalLoop=1;jettySize=auto;html=1;" parent="1" source="-nLzh2Zqv-7Wwyc-YTre-20" target="-nLzh2Zqv-7Wwyc-YTre-22" edge="1">
          <mxGeometry relative="1" as="geometry" />
        </mxCell>
        <mxCell id="-nLzh2Zqv-7Wwyc-YTre-20" value="&lt;b&gt;Start&lt;/b&gt;" style="ellipse;whiteSpace=wrap;html=1;" parent="1" vertex="1">
          <mxGeometry x="70" y="50" width="90" height="50" as="geometry" />
        </mxCell>
        <mxCell id="-nLzh2Zqv-7Wwyc-YTre-27" style="edgeStyle=orthogonalEdgeStyle;rounded=0;orthogonalLoop=1;jettySize=auto;html=1;" parent="1" source="-nLzh2Zqv-7Wwyc-YTre-22" target="-nLzh2Zqv-7Wwyc-YTre-26" edge="1">
          <mxGeometry relative="1" as="geometry" />
        </mxCell>
        <mxCell id="-nLzh2Zqv-7Wwyc-YTre-22" value="Input:&lt;br&gt;matrix &lt;b&gt;Ax&lt;/b&gt;" style="shape=parallelogram;html=1;strokeWidth=2;perimeter=parallelogramPerimeter;whiteSpace=wrap;rounded=1;arcSize=12;size=0.23;" parent="1" vertex="1">
          <mxGeometry x="60" y="130" width="110" height="50" as="geometry" />
        </mxCell>
        <mxCell id="-nLzh2Zqv-7Wwyc-YTre-29" style="edgeStyle=orthogonalEdgeStyle;rounded=0;orthogonalLoop=1;jettySize=auto;html=1;" parent="1" source="-nLzh2Zqv-7Wwyc-YTre-26" edge="1">
          <mxGeometry relative="1" as="geometry">
            <mxPoint x="-241.199951171875" y="250" as="targetPoint" />
          </mxGeometry>
        </mxCell>
        <mxCell id="-nLzh2Zqv-7Wwyc-YTre-30" value="&lt;b&gt;NO&lt;/b&gt;" style="edgeLabel;html=1;align=center;verticalAlign=middle;resizable=0;points=[];" parent="-nLzh2Zqv-7Wwyc-YTre-29" vertex="1" connectable="0">
          <mxGeometry x="-0.4364" y="-2" relative="1" as="geometry">
            <mxPoint y="1" as="offset" />
          </mxGeometry>
        </mxCell>
        <mxCell id="-nLzh2Zqv-7Wwyc-YTre-42" style="edgeStyle=orthogonalEdgeStyle;rounded=0;orthogonalLoop=1;jettySize=auto;html=1;" parent="1" source="-nLzh2Zqv-7Wwyc-YTre-26" target="-nLzh2Zqv-7Wwyc-YTre-39" edge="1">
          <mxGeometry relative="1" as="geometry" />
        </mxCell>
        <mxCell id="-nLzh2Zqv-7Wwyc-YTre-49" value="&lt;b&gt;YES&lt;/b&gt;" style="edgeLabel;html=1;align=center;verticalAlign=middle;resizable=0;points=[];" parent="-nLzh2Zqv-7Wwyc-YTre-42" vertex="1" connectable="0">
          <mxGeometry x="-0.3246" y="4" relative="1" as="geometry">
            <mxPoint as="offset" />
          </mxGeometry>
        </mxCell>
        <mxCell id="-nLzh2Zqv-7Wwyc-YTre-26" value="Is matrix &lt;b&gt;A&lt;/b&gt; symmetric and positive?" style="strokeWidth=2;html=1;shape=mxgraph.flowchart.decision;whiteSpace=wrap;" parent="1" vertex="1">
          <mxGeometry x="65" y="200" width="100" height="100" as="geometry" />
        </mxCell>
        <mxCell id="-nLzh2Zqv-7Wwyc-YTre-28" value="&lt;font face=&quot;Helvetica&quot;&gt;&lt;b&gt;Finish with error message&lt;/b&gt;&lt;/font&gt;" style="ellipse;whiteSpace=wrap;html=1;" parent="1" vertex="1">
          <mxGeometry x="-413" y="220" width="170" height="60" as="geometry" />
        </mxCell>
        <mxCell id="-nLzh2Zqv-7Wwyc-YTre-43" style="edgeStyle=orthogonalEdgeStyle;rounded=0;orthogonalLoop=1;jettySize=auto;html=1;" parent="1" source="-nLzh2Zqv-7Wwyc-YTre-39" edge="1">
          <mxGeometry relative="1" as="geometry">
            <mxPoint y="400" as="targetPoint" />
          </mxGeometry>
        </mxCell>
        <mxCell id="-nLzh2Zqv-7Wwyc-YTre-39" value="&lt;b&gt;A = LL&lt;sup&gt;T&lt;/sup&gt;&lt;/b&gt;" style="rounded=1;whiteSpace=wrap;html=1;absoluteArcSize=1;arcSize=14;strokeWidth=2;" parent="1" vertex="1">
          <mxGeometry x="75" y="360" width="80" height="80" as="geometry" />
        </mxCell>
        <mxCell id="-nLzh2Zqv-7Wwyc-YTre-40" value="&lt;b&gt;l&lt;sub&gt;11&lt;/sub&gt;=sqrt(a&lt;sub&gt;11&lt;/sub&gt;)&lt;/b&gt;&lt;div&gt;&lt;b&gt;l&lt;sub&gt;j1&lt;/sub&gt;=(a&lt;sub&gt;j1&lt;/sub&gt;/l&lt;sub&gt;11&lt;/sub&gt;), j э [2, n]&lt;/b&gt;&lt;/div&gt;" style="rounded=1;whiteSpace=wrap;html=1;absoluteArcSize=1;arcSize=14;strokeWidth=2;" parent="1" vertex="1">
          <mxGeometry x="-130" y="365" width="130" height="70" as="geometry" />
        </mxCell>
        <mxCell id="-nLzh2Zqv-7Wwyc-YTre-46" style="edgeStyle=orthogonalEdgeStyle;rounded=0;orthogonalLoop=1;jettySize=auto;html=1;" parent="1" source="-nLzh2Zqv-7Wwyc-YTre-41" edge="1">
          <mxGeometry relative="1" as="geometry">
            <mxPoint x="-55" y="630" as="targetPoint" />
          </mxGeometry>
        </mxCell>
        <mxCell id="EWecVWUNfD5A1J7WJTTb-4" style="edgeStyle=orthogonalEdgeStyle;rounded=0;orthogonalLoop=1;jettySize=auto;html=1;exitX=0;exitY=0.5;exitDx=0;exitDy=0;entryX=1;entryY=0.5;entryDx=0;entryDy=0;" parent="1" source="-nLzh2Zqv-7Wwyc-YTre-45" target="-nLzh2Zqv-7Wwyc-YTre-47" edge="1">
          <mxGeometry relative="1" as="geometry" />
        </mxCell>
        <mxCell id="-nLzh2Zqv-7Wwyc-YTre-45" value="Calculating systems:&lt;br&gt;&lt;b&gt;Ly = b&lt;/b&gt;&lt;div&gt;&lt;b&gt;L&lt;sup&gt;T&lt;/sup&gt;x = y&lt;/b&gt;&lt;/div&gt;" style="rounded=1;whiteSpace=wrap;html=1;absoluteArcSize=1;arcSize=14;strokeWidth=2;" parent="1" vertex="1">
          <mxGeometry x="-95" y="630" width="80" height="80" as="geometry" />
        </mxCell>
        <mxCell id="EWecVWUNfD5A1J7WJTTb-5" style="edgeStyle=orthogonalEdgeStyle;rounded=0;orthogonalLoop=1;jettySize=auto;html=1;exitX=0;exitY=0.5;exitDx=0;exitDy=0;" parent="1" source="-nLzh2Zqv-7Wwyc-YTre-47" edge="1">
          <mxGeometry relative="1" as="geometry">
            <mxPoint x="-340" y="670" as="targetPoint" />
          </mxGeometry>
        </mxCell>
        <mxCell id="-nLzh2Zqv-7Wwyc-YTre-47" value="result:&lt;div&gt;&lt;b&gt;x, y&lt;/b&gt;&lt;/div&gt;" style="rounded=1;whiteSpace=wrap;html=1;absoluteArcSize=1;arcSize=14;strokeWidth=2;" parent="1" vertex="1">
          <mxGeometry x="-270" y="635" width="71" height="70" as="geometry" />
        </mxCell>
        <mxCell id="-nLzh2Zqv-7Wwyc-YTre-50" value="&lt;font face=&quot;Helvetica&quot;&gt;&lt;b&gt;Successful finish&lt;/b&gt;&lt;/font&gt;" style="ellipse;whiteSpace=wrap;html=1;" parent="1" vertex="1">
          <mxGeometry x="-460" y="640" width="119" height="60" as="geometry" />
        </mxCell>
        <mxCell id="-nLzh2Zqv-7Wwyc-YTre-41" value="&lt;b&gt;l&lt;sub&gt;ii&lt;/sub&gt;=sqrt(a&lt;sub&gt;ii&lt;/sub&gt;&amp;nbsp;- sum&lt;sup&gt;i-1&lt;/sup&gt;&lt;sub&gt;p=1&lt;/sub&gt;(l&lt;span style=&quot;font-size: 10px;&quot;&gt;&lt;sup&gt;2&lt;/sup&gt;&lt;sub&gt;ip&lt;/sub&gt;&lt;/span&gt;)),&amp;nbsp;&lt;/b&gt;&lt;div&gt;&lt;b&gt;i э [2, n]&lt;/b&gt;&lt;/div&gt;&lt;div&gt;&lt;b&gt;&lt;br&gt;&lt;/b&gt;&lt;div&gt;&lt;b&gt;l&lt;sub&gt;j1&lt;/sub&gt;=(1/l&lt;span style=&quot;font-size: 10px;&quot;&gt;ii&lt;/span&gt;)*(a&lt;sub&gt;ji&lt;/sub&gt;-&lt;span style=&quot;background-color: initial;&quot;&gt;sum&lt;sup&gt;i-1&lt;/sup&gt;&lt;sub&gt;p=1&lt;/sub&gt;(l&lt;span style=&quot;font-size: 10px;&quot;&gt;&lt;sub&gt;ip&lt;/sub&gt;l&lt;sub&gt;jp&lt;/sub&gt;&lt;/span&gt;)&lt;/span&gt;&lt;span style=&quot;background-color: initial;&quot;&gt;),&amp;nbsp;&lt;/span&gt;&lt;/b&gt;&lt;/div&gt;&lt;div&gt;&lt;b&gt;&lt;span style=&quot;background-color: initial;&quot;&gt;i э [2, n-1],&amp;nbsp;&lt;/span&gt;&lt;span style=&quot;background-color: initial;&quot;&gt;j э [i+1, n]&lt;/span&gt;&lt;/b&gt;&lt;/div&gt;&lt;/div&gt;" style="rounded=1;whiteSpace=wrap;html=1;absoluteArcSize=1;arcSize=14;strokeWidth=2;" parent="1" vertex="1">
          <mxGeometry x="-150" y="485" width="190" height="100" as="geometry" />
        </mxCell>
        <mxCell id="EWecVWUNfD5A1J7WJTTb-3" style="edgeStyle=orthogonalEdgeStyle;rounded=0;orthogonalLoop=1;jettySize=auto;html=1;exitX=0.5;exitY=1;exitDx=0;exitDy=0;entryX=0.449;entryY=0.036;entryDx=0;entryDy=0;entryPerimeter=0;" parent="1" source="-nLzh2Zqv-7Wwyc-YTre-40" target="-nLzh2Zqv-7Wwyc-YTre-41" edge="1">
          <mxGeometry relative="1" as="geometry">
            <Array as="points">
              <mxPoint x="-65" y="470" />
              <mxPoint x="-65" y="470" />
            </Array>
          </mxGeometry>
        </mxCell>
      </root>
    </mxGraphModel>
  </diagram>
  <diagram id="SSo8xtQJ7NKQG2zLOsxn" name="Страница — 2">
    <mxGraphModel dx="2279" dy="654" grid="1" gridSize="10" guides="1" tooltips="1" connect="1" arrows="1" fold="1" page="1" pageScale="1" pageWidth="827" pageHeight="1169" math="0" shadow="0">
      <root>
        <mxCell id="0" />
        <mxCell id="1" parent="0" />
        <mxCell id="OroCj5uZTODjzgY-YrUf-1" style="edgeStyle=orthogonalEdgeStyle;rounded=0;orthogonalLoop=1;jettySize=auto;html=1;" edge="1" parent="1" source="OroCj5uZTODjzgY-YrUf-2" target="OroCj5uZTODjzgY-YrUf-4">
          <mxGeometry relative="1" as="geometry" />
        </mxCell>
        <mxCell id="OroCj5uZTODjzgY-YrUf-2" value="&lt;b&gt;Начало&lt;/b&gt;" style="ellipse;whiteSpace=wrap;html=1;" vertex="1" parent="1">
          <mxGeometry x="81.25" y="50" width="90" height="50" as="geometry" />
        </mxCell>
        <mxCell id="OroCj5uZTODjzgY-YrUf-3" style="edgeStyle=orthogonalEdgeStyle;rounded=0;orthogonalLoop=1;jettySize=auto;html=1;" edge="1" parent="1" source="OroCj5uZTODjzgY-YrUf-4" target="OroCj5uZTODjzgY-YrUf-9">
          <mxGeometry relative="1" as="geometry" />
        </mxCell>
        <mxCell id="OroCj5uZTODjzgY-YrUf-4" value="Ввод:&lt;br&gt;матрица&amp;nbsp;&lt;b&gt;Ax&lt;/b&gt;" style="shape=parallelogram;html=1;strokeWidth=2;perimeter=parallelogramPerimeter;whiteSpace=wrap;rounded=1;arcSize=12;size=0.23;" vertex="1" parent="1">
          <mxGeometry x="71.25" y="130" width="110" height="50" as="geometry" />
        </mxCell>
        <mxCell id="OroCj5uZTODjzgY-YrUf-5" style="edgeStyle=orthogonalEdgeStyle;rounded=0;orthogonalLoop=1;jettySize=auto;html=1;" edge="1" parent="1" source="OroCj5uZTODjzgY-YrUf-9">
          <mxGeometry relative="1" as="geometry">
            <mxPoint x="-240" y="295" as="targetPoint" />
          </mxGeometry>
        </mxCell>
        <mxCell id="zUm_diPJKxr1ieI0QL2I-9" value="НЕТ" style="edgeLabel;html=1;align=center;verticalAlign=middle;resizable=0;points=[];" vertex="1" connectable="0" parent="OroCj5uZTODjzgY-YrUf-5">
          <mxGeometry x="-0.2826" y="-2" relative="1" as="geometry">
            <mxPoint as="offset" />
          </mxGeometry>
        </mxCell>
        <mxCell id="OroCj5uZTODjzgY-YrUf-7" style="edgeStyle=orthogonalEdgeStyle;rounded=0;orthogonalLoop=1;jettySize=auto;html=1;" edge="1" parent="1">
          <mxGeometry relative="1" as="geometry">
            <mxPoint x="127.23076923076951" y="370" as="sourcePoint" />
            <mxPoint x="127.23076923076951" y="430" as="targetPoint" />
            <Array as="points">
              <mxPoint x="127" y="400" />
              <mxPoint x="127" y="400" />
            </Array>
          </mxGeometry>
        </mxCell>
        <mxCell id="7JQeMYqvybGTEoRIMcWd-2" value="ДА" style="edgeLabel;html=1;align=center;verticalAlign=middle;resizable=0;points=[];" vertex="1" connectable="0" parent="OroCj5uZTODjzgY-YrUf-7">
          <mxGeometry x="-0.4277" y="-3" relative="1" as="geometry">
            <mxPoint x="2" y="13" as="offset" />
          </mxGeometry>
        </mxCell>
        <mxCell id="OroCj5uZTODjzgY-YrUf-9" value="Является ли матрица&amp;nbsp;&lt;b&gt;A&lt;/b&gt;&amp;nbsp;симметричной и положительной?" style="strokeWidth=2;html=1;shape=mxgraph.flowchart.decision;whiteSpace=wrap;" vertex="1" parent="1">
          <mxGeometry x="42.5" y="220" width="167.5" height="150" as="geometry" />
        </mxCell>
        <mxCell id="OroCj5uZTODjzgY-YrUf-10" value="&lt;b&gt;Завершение работы с сообщением об ошибке&lt;/b&gt;" style="ellipse;whiteSpace=wrap;html=1;" vertex="1" parent="1">
          <mxGeometry x="-413" y="265" width="170" height="60" as="geometry" />
        </mxCell>
        <mxCell id="OroCj5uZTODjzgY-YrUf-11" style="edgeStyle=orthogonalEdgeStyle;rounded=0;orthogonalLoop=1;jettySize=auto;html=1;entryX=1;entryY=0.5;entryDx=0;entryDy=0;" edge="1" parent="1" source="OroCj5uZTODjzgY-YrUf-12" target="OroCj5uZTODjzgY-YrUf-13">
          <mxGeometry relative="1" as="geometry">
            <mxPoint x="-20" y="470" as="targetPoint" />
          </mxGeometry>
        </mxCell>
        <mxCell id="OroCj5uZTODjzgY-YrUf-12" value="&lt;b&gt;A = LL&lt;sup&gt;T&lt;/sup&gt;&lt;/b&gt;" style="rounded=1;whiteSpace=wrap;html=1;absoluteArcSize=1;arcSize=14;strokeWidth=2;" vertex="1" parent="1">
          <mxGeometry x="86.25" y="430" width="80" height="80" as="geometry" />
        </mxCell>
        <mxCell id="OroCj5uZTODjzgY-YrUf-22" style="edgeStyle=orthogonalEdgeStyle;rounded=0;orthogonalLoop=1;jettySize=auto;html=1;exitX=0.5;exitY=1;exitDx=0;exitDy=0;entryX=0.5;entryY=0;entryDx=0;entryDy=0;" edge="1" parent="1" source="OroCj5uZTODjzgY-YrUf-13" target="OroCj5uZTODjzgY-YrUf-19">
          <mxGeometry relative="1" as="geometry" />
        </mxCell>
        <mxCell id="OroCj5uZTODjzgY-YrUf-13" value="&lt;b&gt;l&lt;sub&gt;11&lt;/sub&gt;=sqrt(a&lt;sub&gt;11&lt;/sub&gt;)&lt;/b&gt;&lt;div&gt;&lt;b&gt;l&lt;sub&gt;j1&lt;/sub&gt;=(a&lt;sub&gt;j1&lt;/sub&gt;/l&lt;sub&gt;11&lt;/sub&gt;), j э [2, n]&lt;/b&gt;&lt;/div&gt;" style="rounded=1;whiteSpace=wrap;html=1;absoluteArcSize=1;arcSize=14;strokeWidth=2;" vertex="1" parent="1">
          <mxGeometry x="-160" y="435" width="130" height="70" as="geometry" />
        </mxCell>
        <mxCell id="OroCj5uZTODjzgY-YrUf-15" style="edgeStyle=orthogonalEdgeStyle;rounded=0;orthogonalLoop=1;jettySize=auto;html=1;exitX=0;exitY=0.5;exitDx=0;exitDy=0;entryX=1;entryY=0.5;entryDx=0;entryDy=0;" edge="1" parent="1" source="OroCj5uZTODjzgY-YrUf-16" target="OroCj5uZTODjzgY-YrUf-18">
          <mxGeometry relative="1" as="geometry" />
        </mxCell>
        <mxCell id="OroCj5uZTODjzgY-YrUf-16" value="Вычислительные системы:&lt;br&gt;&lt;b&gt;Ly = b&lt;/b&gt;&lt;div&gt;&lt;b&gt;L&lt;sup&gt;T&lt;/sup&gt;x = y&lt;/b&gt;&lt;/div&gt;" style="rounded=1;whiteSpace=wrap;html=1;absoluteArcSize=1;arcSize=14;strokeWidth=2;" vertex="1" parent="1">
          <mxGeometry x="-147.5" y="730" width="105" height="90" as="geometry" />
        </mxCell>
        <mxCell id="OroCj5uZTODjzgY-YrUf-17" style="edgeStyle=orthogonalEdgeStyle;rounded=0;orthogonalLoop=1;jettySize=auto;html=1;exitX=0;exitY=0.5;exitDx=0;exitDy=0;entryX=1;entryY=0.5;entryDx=0;entryDy=0;" edge="1" parent="1" source="OroCj5uZTODjzgY-YrUf-18" target="zUm_diPJKxr1ieI0QL2I-1">
          <mxGeometry relative="1" as="geometry">
            <mxPoint x="-340" y="670" as="targetPoint" />
          </mxGeometry>
        </mxCell>
        <mxCell id="OroCj5uZTODjzgY-YrUf-18" value="Результат:&lt;div&gt;&lt;b&gt;x, y&lt;/b&gt;&lt;/div&gt;" style="rounded=1;whiteSpace=wrap;html=1;absoluteArcSize=1;arcSize=14;strokeWidth=2;" vertex="1" parent="1">
          <mxGeometry x="-314" y="740" width="71" height="70" as="geometry" />
        </mxCell>
        <mxCell id="OroCj5uZTODjzgY-YrUf-23" style="edgeStyle=orthogonalEdgeStyle;rounded=0;orthogonalLoop=1;jettySize=auto;html=1;exitX=0.5;exitY=1;exitDx=0;exitDy=0;entryX=0.5;entryY=0;entryDx=0;entryDy=0;" edge="1" parent="1" source="OroCj5uZTODjzgY-YrUf-19" target="OroCj5uZTODjzgY-YrUf-16">
          <mxGeometry relative="1" as="geometry" />
        </mxCell>
        <mxCell id="OroCj5uZTODjzgY-YrUf-19" value="&lt;b&gt;l&lt;sub&gt;ii&lt;/sub&gt;=sqrt(a&lt;sub&gt;ii&lt;/sub&gt;&amp;nbsp;- sum&lt;sup&gt;i-1&lt;/sup&gt;&lt;sub&gt;p=1&lt;/sub&gt;(l&lt;span style=&quot;font-size: 10px;&quot;&gt;&lt;sup&gt;2&lt;/sup&gt;&lt;sub&gt;ip&lt;/sub&gt;&lt;/span&gt;)),&amp;nbsp;&lt;/b&gt;&lt;div&gt;&lt;b&gt;i э [2, n]&lt;/b&gt;&lt;/div&gt;&lt;div&gt;&lt;b&gt;&lt;br&gt;&lt;/b&gt;&lt;div&gt;&lt;b&gt;l&lt;sub&gt;j1&lt;/sub&gt;=(1/l&lt;span style=&quot;font-size: 10px;&quot;&gt;ii&lt;/span&gt;)*(a&lt;sub&gt;ji&lt;/sub&gt;-&lt;span style=&quot;background-color: initial;&quot;&gt;sum&lt;sup&gt;i-1&lt;/sup&gt;&lt;sub&gt;p=1&lt;/sub&gt;(l&lt;span style=&quot;font-size: 10px;&quot;&gt;&lt;sub&gt;ip&lt;/sub&gt;l&lt;sub&gt;jp&lt;/sub&gt;&lt;/span&gt;)&lt;/span&gt;&lt;span style=&quot;background-color: initial;&quot;&gt;),&amp;nbsp;&lt;/span&gt;&lt;/b&gt;&lt;/div&gt;&lt;div&gt;&lt;b&gt;&lt;span style=&quot;background-color: initial;&quot;&gt;i э [2, n-1],&amp;nbsp;&lt;/span&gt;&lt;span style=&quot;background-color: initial;&quot;&gt;j э [i+1, n]&lt;/span&gt;&lt;/b&gt;&lt;/div&gt;&lt;/div&gt;" style="rounded=1;whiteSpace=wrap;html=1;absoluteArcSize=1;arcSize=14;strokeWidth=2;" vertex="1" parent="1">
          <mxGeometry x="-190" y="550" width="190" height="100" as="geometry" />
        </mxCell>
        <mxCell id="zUm_diPJKxr1ieI0QL2I-1" value="&lt;b&gt;Успешный финиш&lt;/b&gt;" style="ellipse;whiteSpace=wrap;html=1;" vertex="1" parent="1">
          <mxGeometry x="-532" y="745" width="119" height="60" as="geometry" />
        </mxCell>
      </root>
    </mxGraphModel>
  </diagram>
</mxfile>
